# sample — one body, three material groups
mtllib traffic_light.mtl
o Traffic_Light
v -40 100 60
v -15 100 60
v -15 125 60
v -40 125 60
v -40 100 85
v -15 100 85
v -15 125 85
v -40 125 85
usemtl red
f 1 2 3
f 1 3 4
f 5 7 6
f 5 8 7
f 1 5 6
f 1 6 2
f 2 6 7
f 2 7 3
f 3 7 8
f 3 8 4
f 4 8 5
f 4 5 1
v -40 100 30
v -15 100 30
v -15 125 30
v -40 125 30
v -40 100 55
v -15 100 55
v -15 125 55
v -40 125 55
usemtl amber
f 9 10 11
f 9 11 12
f 13 15 14
f 13 16 15
f 9 13 14
f 9 14 10
f 10 14 15
f 10 15 11
f 11 15 16
f 11 16 12
f 12 16 13
f 12 13 9
v -40 100 0
v -15 100 0
v -15 125 0
v -40 125 0
v -40 100 25
v -15 100 25
v -15 125 25
v -40 125 25
usemtl green
f 17 18 19
f 17 19 20
f 21 23 22
f 21 24 23
f 17 21 22
f 17 22 18
f 18 22 23
f 18 23 19
f 19 23 24
f 19 24 20
f 20 24 21
f 20 21 17
