solid Wedge
 facet normal 0 0 1
  outer loop
   vertex -60 10 0
   vertex -20 10 0
   vertex -20 50 0
  endloop
 endfacet
 facet normal 0 0 1
  outer loop
   vertex -60 10 0
   vertex -20 50 0
   vertex -60 50 0
  endloop
 endfacet
 facet normal -1 0 0
  outer loop
   vertex -60 10 0
   vertex -60 10 40
   vertex -60 50 40
  endloop
 endfacet
 facet normal -1 0 0
  outer loop
   vertex -60 10 0
   vertex -60 50 40
   vertex -60 50 0
  endloop
 endfacet
 facet normal 0.7071067811865475 0 0.7071067811865475
  outer loop
   vertex -20 10 0
   vertex -20 50 0
   vertex -60 50 40
  endloop
 endfacet
 facet normal 0.7071067811865475 0 0.7071067811865475
  outer loop
   vertex -20 10 0
   vertex -60 50 40
   vertex -60 10 40
  endloop
 endfacet
 facet normal 0 -1 0
  outer loop
   vertex -60 10 0
   vertex -20 10 0
   vertex -60 10 40
  endloop
 endfacet
 facet normal 0 1 0
  outer loop
   vertex -60 50 0
   vertex -60 50 40
   vertex -20 50 0
  endloop
 endfacet
endsolid Wedge
