<?xml version="1.0" encoding="UTF-8"?>
<svg id="Layer_2" data-name="Layer 2" xmlns="http://www.w3.org/2000/svg" viewBox="0 0 46.42 51.34">
  <defs>
    <style>
      .cls-1 {
        fill: #389d86;
      }
    </style>
  </defs>
  <g id="Layer_6" data-name="Layer 6">
    <path class="cls-1" d="M42.65,10.46L27.25,1.13c-2.5-1.51-5.6-1.51-8.09,0L3.76,10.46c-2.32,1.41-3.76,3.96-3.76,6.68v17.06c0,2.71,1.44,5.27,3.76,6.68l15.4,9.33c1.25.75,2.65,1.13,4.04,1.13s2.8-.38,4.04-1.13l15.4-9.33c2.32-1.41,3.76-3.96,3.76-6.68v-17.06c0-2.71-1.44-5.27-3.76-6.68ZM5.83,37.46c-1.13-.69-1.83-1.93-1.83-3.26v-16.78l11.56,7c.32.2.68.29,1.03.29.68,0,1.34-.34,1.71-.96.57-.94.27-2.17-.67-2.75l-11.77-7.13,15.38-9.31c.61-.37,1.29-.55,1.97-.55s1.36.18,1.97.55l15.38,9.31-15.59,9.44c-2.32,1.41-3.76,3.96-3.76,6.68v16.78l-15.37-9.31ZM40.58,37.46l-15.37,9.31v-16.78c0-1.32.7-2.57,1.83-3.26l15.37-9.31v16.78c0,1.32-.7,2.57-1.83,3.26Z"/>
  </g>
</svg>